<svg xmlns="http://www.w3.org/2000/svg" viewBox="0 0 1200 800" width="1200" height="800" font-family='system-ui, -apple-system, "PingFang SC", "Microsoft YaHei", sans-serif'>
<rect width="1200" height="800" fill="#FAF7F0"/>
<text x="80" y="70" font-size="32" fill="#0F4C81" text-anchor="start" font-weight="600" font-family='system-ui, -apple-system, "PingFang SC", "Microsoft YaHei", sans-serif'>Demo 介导的需求对齐流程</text>
<line x1="80" y1="130" x2="1120" y2="130" stroke="#D8D2C5" stroke-width="1"/>
<rect x="120.0" y="350.0" width="160.0" height="100" fill="#0F4C81" stroke="#2D2D2D" stroke-width="1.5" rx="10"/>
<text x="200.0" y="385.0" font-size="18" fill="#FFFFFF" text-anchor="middle" font-weight="600" font-family='system-ui, -apple-system, "PingFang SC", "Microsoft YaHei", sans-serif'>客户一句话</text>
<text x="200.0" y="415.0" font-size="13" fill="#FFFFFF" text-anchor="middle" font-family='system-ui, -apple-system, "PingFang SC", "Microsoft YaHei", sans-serif'>模糊诉求</text>
<line x1="285.0" y1="400.0" x2="315.0" y2="400.0" stroke="#8B8680" stroke-width="2"/>
<polygon points="315.0,400.0 305.0,394.0 305.0,406.0" fill="#8B8680"/>
<rect x="320.0" y="350.0" width="160.0" height="100" fill="#0F4C81" stroke="#2D2D2D" stroke-width="1.5" rx="10"/>
<text x="400.0" y="385.0" font-size="18" fill="#FFFFFF" text-anchor="middle" font-weight="600" font-family='system-ui, -apple-system, "PingFang SC", "Microsoft YaHei", sans-serif'>AI 出原型</text>
<text x="400.0" y="415.0" font-size="13" fill="#FFFFFF" text-anchor="middle" font-family='system-ui, -apple-system, "PingFang SC", "Microsoft YaHei", sans-serif'>30 分钟</text>
<line x1="485.0" y1="400.0" x2="515.0" y2="400.0" stroke="#8B8680" stroke-width="2"/>
<polygon points="515.0,400.0 505.0,394.0 505.0,406.0" fill="#8B8680"/>
<rect x="520.0" y="350.0" width="160.0" height="100" fill="#0F4C81" stroke="#2D2D2D" stroke-width="1.5" rx="10"/>
<text x="600.0" y="385.0" font-size="18" fill="#FFFFFF" text-anchor="middle" font-weight="600" font-family='system-ui, -apple-system, "PingFang SC", "Microsoft YaHei", sans-serif'>客户指认</text>
<text x="600.0" y="415.0" font-size="13" fill="#FFFFFF" text-anchor="middle" font-family='system-ui, -apple-system, "PingFang SC", "Microsoft YaHei", sans-serif'>对 / 错 / 不够</text>
<line x1="685.0" y1="400.0" x2="715.0" y2="400.0" stroke="#8B8680" stroke-width="2"/>
<polygon points="715.0,400.0 705.0,394.0 705.0,406.0" fill="#8B8680"/>
<rect x="720.0" y="350.0" width="160.0" height="100" fill="#0F4C81" stroke="#2D2D2D" stroke-width="1.5" rx="10"/>
<text x="800.0" y="385.0" font-size="18" fill="#FFFFFF" text-anchor="middle" font-weight="600" font-family='system-ui, -apple-system, "PingFang SC", "Microsoft YaHei", sans-serif'>迭代原型</text>
<text x="800.0" y="415.0" font-size="13" fill="#FFFFFF" text-anchor="middle" font-family='system-ui, -apple-system, "PingFang SC", "Microsoft YaHei", sans-serif'>直到对</text>
<line x1="885.0" y1="400.0" x2="915.0" y2="400.0" stroke="#8B8680" stroke-width="2"/>
<polygon points="915.0,400.0 905.0,394.0 905.0,406.0" fill="#8B8680"/>
<rect x="920.0" y="350.0" width="160.0" height="100" fill="#0F4C81" stroke="#2D2D2D" stroke-width="1.5" rx="10"/>
<text x="1000.0" y="385.0" font-size="18" fill="#FFFFFF" text-anchor="middle" font-weight="600" font-family='system-ui, -apple-system, "PingFang SC", "Microsoft YaHei", sans-serif'>可执行需求</text>
<text x="1000.0" y="415.0" font-size="13" fill="#FFFFFF" text-anchor="middle" font-family='system-ui, -apple-system, "PingFang SC", "Microsoft YaHei", sans-serif'>验收清单</text>
<line x1="80" y1="730" x2="1120" y2="730" stroke="#D8D2C5" stroke-width="1"/>
<text x="1120" y="755" font-size="12" fill="#8B8680" text-anchor="end" font-family='system-ui, -apple-system, "PingFang SC", "Microsoft YaHei", sans-serif'>施可 · 三本书</text>
</svg>
