<svg xmlns="http://www.w3.org/2000/svg" viewBox="0 0 1200 800" width="1200" height="800" font-family='system-ui, -apple-system, "PingFang SC", "Microsoft YaHei", sans-serif'>
<rect width="1200" height="800" fill="#FAF7F0"/>
<text x="80" y="70" font-size="32" fill="#0F4C81" text-anchor="start" font-weight="600" font-family='system-ui, -apple-system, "PingFang SC", "Microsoft YaHei", sans-serif'>国内编程套餐选型决策树</text>
<line x1="80" y1="130" x2="1120" y2="130" stroke="#D8D2C5" stroke-width="1"/>
<rect x="530.0" y="178" width="140" height="44" fill="#0F4C81" stroke="#2D2D2D" stroke-width="1.5" rx="8"/>
<text x="600.0" y="205" font-size="15" fill="#FFFFFF" text-anchor="middle" font-weight="600" font-family='system-ui, -apple-system, "PingFang SC", "Microsoft YaHei", sans-serif'>你的核心场景</text>
<line x1="600.0" y1="222" x2="480.0" y2="308" stroke="#8B8680" stroke-width="1.5"/>
<rect x="410.0" y="308" width="140" height="44" fill="#16A085" stroke="#2D2D2D" stroke-width="1.5" rx="8"/>
<text x="480.0" y="335" font-size="15" fill="#FFFFFF" text-anchor="middle" font-weight="600" font-family='system-ui, -apple-system, "PingFang SC", "Microsoft YaHei", sans-serif'>重度长任务(数小时+重复读)</text>
<line x1="480.0" y1="352" x2="360.0" y2="438" stroke="#8B8680" stroke-width="1.5"/>
<rect x="290.0" y="438" width="140" height="44" fill="#D2691E" stroke="#2D2D2D" stroke-width="1.5" rx="8"/>
<text x="360.0" y="465" font-size="15" fill="#FFFFFF" text-anchor="middle" font-weight="600" font-family='system-ui, -apple-system, "PingFang SC", "Microsoft YaHei", sans-serif'>Kimi K3 档</text>
<line x1="480.0" y1="352" x2="480.0" y2="438" stroke="#8B8680" stroke-width="1.5"/>
<rect x="410.0" y="438" width="140" height="44" fill="#D2691E" stroke="#2D2D2D" stroke-width="1.5" rx="8"/>
<text x="480.0" y="465" font-size="15" fill="#FFFFFF" text-anchor="middle" font-weight="600" font-family='system-ui, -apple-system, "PingFang SC", "Microsoft YaHei", sans-serif'>缓存命中免费</text>
<line x1="480.0" y1="352" x2="600.0" y2="438" stroke="#8B8680" stroke-width="1.5"/>
<rect x="530.0" y="438" width="140" height="44" fill="#D2691E" stroke="#2D2D2D" stroke-width="1.5" rx="8"/>
<text x="600.0" y="465" font-size="15" fill="#FFFFFF" text-anchor="middle" font-weight="600" font-family='system-ui, -apple-system, "PingFang SC", "Microsoft YaHei", sans-serif'>白名单风险</text>
<line x1="600.0" y1="222" x2="600.0" y2="308" stroke="#8B8680" stroke-width="1.5"/>
<rect x="530.0" y="308" width="140" height="44" fill="#16A085" stroke="#2D2D2D" stroke-width="1.5" rx="8"/>
<text x="600.0" y="335" font-size="15" fill="#FFFFFF" text-anchor="middle" font-weight="600" font-family='system-ui, -apple-system, "PingFang SC", "Microsoft YaHei", sans-serif'>跑量任务(批量短请求)</text>
<line x1="600.0" y1="352" x2="480.0" y2="438" stroke="#8B8680" stroke-width="1.5"/>
<rect x="410.0" y="438" width="140" height="44" fill="#D2691E" stroke="#2D2D2D" stroke-width="1.5" rx="8"/>
<text x="480.0" y="465" font-size="15" fill="#FFFFFF" text-anchor="middle" font-weight="600" font-family='system-ui, -apple-system, "PingFang SC", "Microsoft YaHei", sans-serif'>MiniMax Token Plan</text>
<line x1="600.0" y1="352" x2="600.0" y2="438" stroke="#8B8680" stroke-width="1.5"/>
<rect x="530.0" y="438" width="140" height="44" fill="#D2691E" stroke="#2D2D2D" stroke-width="1.5" rx="8"/>
<text x="600.0" y="465" font-size="15" fill="#FFFFFF" text-anchor="middle" font-weight="600" font-family='system-ui, -apple-system, "PingFang SC", "Microsoft YaHei", sans-serif'>¥49/119/469</text>
<line x1="600.0" y1="352" x2="720.0" y2="438" stroke="#8B8680" stroke-width="1.5"/>
<rect x="650.0" y="438" width="140" height="44" fill="#D2691E" stroke="#2D2D2D" stroke-width="1.5" rx="8"/>
<text x="720.0" y="465" font-size="15" fill="#FFFFFF" text-anchor="middle" font-weight="600" font-family='system-ui, -apple-system, "PingFang SC", "Microsoft YaHei", sans-serif'>复杂任务能力有限</text>
<line x1="600.0" y1="222" x2="720.0" y2="308" stroke="#8B8680" stroke-width="1.5"/>
<rect x="650.0" y="308" width="140" height="44" fill="#16A085" stroke="#2D2D2D" stroke-width="1.5" rx="8"/>
<text x="720.0" y="335" font-size="15" fill="#FFFFFF" text-anchor="middle" font-weight="600" font-family='system-ui, -apple-system, "PingFang SC", "Microsoft YaHei", sans-serif'>频繁迁移 / 多工具混用</text>
<line x1="720.0" y1="352" x2="600.0" y2="438" stroke="#8B8680" stroke-width="1.5"/>
<rect x="530.0" y="438" width="140" height="44" fill="#D2691E" stroke="#2D2D2D" stroke-width="1.5" rx="8"/>
<text x="600.0" y="465" font-size="15" fill="#FFFFFF" text-anchor="middle" font-weight="600" font-family='system-ui, -apple-system, "PingFang SC", "Microsoft YaHei", sans-serif'>智谱 Z Code</text>
<line x1="720.0" y1="352" x2="720.0" y2="438" stroke="#8B8680" stroke-width="1.5"/>
<rect x="650.0" y="438" width="140" height="44" fill="#D2691E" stroke="#2D2D2D" stroke-width="1.5" rx="8"/>
<text x="720.0" y="465" font-size="15" fill="#FFFFFF" text-anchor="middle" font-weight="600" font-family='system-ui, -apple-system, "PingFang SC", "Microsoft YaHei", sans-serif'>接口兼容 20+</text>
<line x1="720.0" y1="352" x2="840.0" y2="438" stroke="#8B8680" stroke-width="1.5"/>
<rect x="770.0" y="438" width="140" height="44" fill="#D2691E" stroke="#2D2D2D" stroke-width="1.5" rx="8"/>
<text x="840.0" y="465" font-size="15" fill="#FFFFFF" text-anchor="middle" font-weight="600" font-family='system-ui, -apple-system, "PingFang SC", "Microsoft YaHei", sans-serif'>高峰限速</text>
<line x1="80" y1="730" x2="1120" y2="730" stroke="#D8D2C5" stroke-width="1"/>
<text x="1120" y="755" font-size="12" fill="#8B8680" text-anchor="end" font-family='system-ui, -apple-system, "PingFang SC", "Microsoft YaHei", sans-serif'>施可 · 三本书</text>
</svg>
