<svg xmlns="http://www.w3.org/2000/svg" viewBox="0 0 1200 800" width="1200" height="800" font-family='system-ui, -apple-system, "PingFang SC", "Microsoft YaHei", sans-serif'>
<rect width="1200" height="800" fill="#FAF7F0"/>
<text x="80" y="70" font-size="32" fill="#0F4C81" text-anchor="start" font-weight="600" font-family='system-ui, -apple-system, "PingFang SC", "Microsoft YaHei", sans-serif'>10 个最常用快捷键</text>
<line x1="80" y1="130" x2="1120" y2="130" stroke="#D8D2C5" stroke-width="1"/>
<rect x="100.0" y="160.0" width="184.0" height="275.0" fill="#FFFFFF" stroke="#0F4C81" stroke-width="1.5" rx="10"/>
<rect x="100.0" y="160.0" width="184.0" height="40" fill="#0F4C81" stroke="#0F4C81" stroke-width="0" rx="10"/>
<rect x="100.0" y="190.0" width="184.0" height="10" fill="#0F4C81"/>
<text x="116.0" y="186.0" font-size="18" fill="#FFFFFF" text-anchor="start" font-weight="600" font-family='system-ui, -apple-system, "PingFang SC", "Microsoft YaHei", sans-serif'>⌘ N</text>
<text x="116.0" y="220.0" font-size="14" fill="#2D2D2D" text-anchor="start" font-family='system-ui, -apple-system, "PingFang SC", "Microsoft YaHei", sans-serif'>• 新建任务</text>
<rect x="304.0" y="160.0" width="184.0" height="275.0" fill="#FFFFFF" stroke="#0F4C81" stroke-width="1.5" rx="10"/>
<rect x="304.0" y="160.0" width="184.0" height="40" fill="#0F4C81" stroke="#0F4C81" stroke-width="0" rx="10"/>
<rect x="304.0" y="190.0" width="184.0" height="10" fill="#0F4C81"/>
<text x="320.0" y="186.0" font-size="18" fill="#FFFFFF" text-anchor="start" font-weight="600" font-family='system-ui, -apple-system, "PingFang SC", "Microsoft YaHei", sans-serif'>⌘ K</text>
<text x="320.0" y="220.0" font-size="14" fill="#2D2D2D" text-anchor="start" font-family='system-ui, -apple-system, "PingFang SC", "Microsoft YaHei", sans-serif'>• 命令面板</text>
<rect x="508.0" y="160.0" width="184.0" height="275.0" fill="#FFFFFF" stroke="#0F4C81" stroke-width="1.5" rx="10"/>
<rect x="508.0" y="160.0" width="184.0" height="40" fill="#0F4C81" stroke="#0F4C81" stroke-width="0" rx="10"/>
<rect x="508.0" y="190.0" width="184.0" height="10" fill="#0F4C81"/>
<text x="524.0" y="186.0" font-size="18" fill="#FFFFFF" text-anchor="start" font-weight="600" font-family='system-ui, -apple-system, "PingFang SC", "Microsoft YaHei", sans-serif'>⌘ /</text>
<text x="524.0" y="220.0" font-size="14" fill="#2D2D2D" text-anchor="start" font-family='system-ui, -apple-system, "PingFang SC", "Microsoft YaHei", sans-serif'>• 搜索</text>
<rect x="712.0" y="160.0" width="184.0" height="275.0" fill="#FFFFFF" stroke="#0F4C81" stroke-width="1.5" rx="10"/>
<rect x="712.0" y="160.0" width="184.0" height="40" fill="#0F4C81" stroke="#0F4C81" stroke-width="0" rx="10"/>
<rect x="712.0" y="190.0" width="184.0" height="10" fill="#0F4C81"/>
<text x="728.0" y="186.0" font-size="18" fill="#FFFFFF" text-anchor="start" font-weight="600" font-family='system-ui, -apple-system, "PingFang SC", "Microsoft YaHei", sans-serif'>⌘ ⇧ F</text>
<text x="728.0" y="220.0" font-size="14" fill="#2D2D2D" text-anchor="start" font-family='system-ui, -apple-system, "PingFang SC", "Microsoft YaHei", sans-serif'>• 格式化</text>
<rect x="916.0" y="160.0" width="184.0" height="275.0" fill="#FFFFFF" stroke="#0F4C81" stroke-width="1.5" rx="10"/>
<rect x="916.0" y="160.0" width="184.0" height="40" fill="#0F4C81" stroke="#0F4C81" stroke-width="0" rx="10"/>
<rect x="916.0" y="190.0" width="184.0" height="10" fill="#0F4C81"/>
<text x="932.0" y="186.0" font-size="18" fill="#FFFFFF" text-anchor="start" font-weight="600" font-family='system-ui, -apple-system, "PingFang SC", "Microsoft YaHei", sans-serif'>⌘ ⏎</text>
<text x="932.0" y="220.0" font-size="14" fill="#2D2D2D" text-anchor="start" font-family='system-ui, -apple-system, "PingFang SC", "Microsoft YaHei", sans-serif'>• 提交</text>
<rect x="100.0" y="455.0" width="184.0" height="275.0" fill="#FFFFFF" stroke="#0F4C81" stroke-width="1.5" rx="10"/>
<rect x="100.0" y="455.0" width="184.0" height="40" fill="#0F4C81" stroke="#0F4C81" stroke-width="0" rx="10"/>
<rect x="100.0" y="485.0" width="184.0" height="10" fill="#0F4C81"/>
<text x="116.0" y="481.0" font-size="18" fill="#FFFFFF" text-anchor="start" font-weight="600" font-family='system-ui, -apple-system, "PingFang SC", "Microsoft YaHei", sans-serif'>⌘ S</text>
<text x="116.0" y="515.0" font-size="14" fill="#2D2D2D" text-anchor="start" font-family='system-ui, -apple-system, "PingFang SC", "Microsoft YaHei", sans-serif'>• 保存到收藏</text>
<rect x="304.0" y="455.0" width="184.0" height="275.0" fill="#FFFFFF" stroke="#0F4C81" stroke-width="1.5" rx="10"/>
<rect x="304.0" y="455.0" width="184.0" height="40" fill="#0F4C81" stroke="#0F4C81" stroke-width="0" rx="10"/>
<rect x="304.0" y="485.0" width="184.0" height="10" fill="#0F4C81"/>
<text x="320.0" y="481.0" font-size="18" fill="#FFFFFF" text-anchor="start" font-weight="600" font-family='system-ui, -apple-system, "PingFang SC", "Microsoft YaHei", sans-serif'>⌘ R</text>
<text x="320.0" y="515.0" font-size="14" fill="#2D2D2D" text-anchor="start" font-family='system-ui, -apple-system, "PingFang SC", "Microsoft YaHei", sans-serif'>• 重生成</text>
<rect x="508.0" y="455.0" width="184.0" height="275.0" fill="#FFFFFF" stroke="#0F4C81" stroke-width="1.5" rx="10"/>
<rect x="508.0" y="455.0" width="184.0" height="40" fill="#0F4C81" stroke="#0F4C81" stroke-width="0" rx="10"/>
<rect x="508.0" y="485.0" width="184.0" height="10" fill="#0F4C81"/>
<text x="524.0" y="481.0" font-size="18" fill="#FFFFFF" text-anchor="start" font-weight="600" font-family='system-ui, -apple-system, "PingFang SC", "Microsoft YaHei", sans-serif'>⌘ Z</text>
<text x="524.0" y="515.0" font-size="14" fill="#2D2D2D" text-anchor="start" font-family='system-ui, -apple-system, "PingFang SC", "Microsoft YaHei", sans-serif'>• 撤销</text>
<rect x="712.0" y="455.0" width="184.0" height="275.0" fill="#FFFFFF" stroke="#0F4C81" stroke-width="1.5" rx="10"/>
<rect x="712.0" y="455.0" width="184.0" height="40" fill="#0F4C81" stroke="#0F4C81" stroke-width="0" rx="10"/>
<rect x="712.0" y="485.0" width="184.0" height="10" fill="#0F4C81"/>
<text x="728.0" y="481.0" font-size="18" fill="#FFFFFF" text-anchor="start" font-weight="600" font-family='system-ui, -apple-system, "PingFang SC", "Microsoft YaHei", sans-serif'>⌘ 1/2/3</text>
<text x="728.0" y="515.0" font-size="14" fill="#2D2D2D" text-anchor="start" font-family='system-ui, -apple-system, "PingFang SC", "Microsoft YaHei", sans-serif'>• 切换左中右栏</text>
<rect x="916.0" y="455.0" width="184.0" height="275.0" fill="#FFFFFF" stroke="#0F4C81" stroke-width="1.5" rx="10"/>
<rect x="916.0" y="455.0" width="184.0" height="40" fill="#0F4C81" stroke="#0F4C81" stroke-width="0" rx="10"/>
<rect x="916.0" y="485.0" width="184.0" height="10" fill="#0F4C81"/>
<text x="932.0" y="481.0" font-size="18" fill="#FFFFFF" text-anchor="start" font-weight="600" font-family='system-ui, -apple-system, "PingFang SC", "Microsoft YaHei", sans-serif'>⌘ ,</text>
<text x="932.0" y="515.0" font-size="14" fill="#2D2D2D" text-anchor="start" font-family='system-ui, -apple-system, "PingFang SC", "Microsoft YaHei", sans-serif'>• 偏好设置</text>
<line x1="80" y1="730" x2="1120" y2="730" stroke="#D8D2C5" stroke-width="1"/>
<text x="1120" y="755" font-size="12" fill="#8B8680" text-anchor="end" font-family='system-ui, -apple-system, "PingFang SC", "Microsoft YaHei", sans-serif'>施可 · 三本书</text>
</svg>
