<svg xmlns="http://www.w3.org/2000/svg" viewBox="0 0 1200 800" width="1200" height="800" font-family='system-ui, -apple-system, "PingFang SC", "Microsoft YaHei", sans-serif'>
<rect width="1200" height="800" fill="#FAF7F0"/>
<text x="80" y="70" font-size="32" fill="#0F4C81" text-anchor="start" font-weight="600" font-family='system-ui, -apple-system, "PingFang SC", "Microsoft YaHei", sans-serif'>周报提示词模板(五段式)</text>
<line x1="80" y1="130" x2="1120" y2="130" stroke="#D8D2C5" stroke-width="1"/>
<rect x="100.0" y="160.0" width="320.0" height="275.0" fill="#FFFFFF" stroke="#0F4C81" stroke-width="1.5" rx="10"/>
<rect x="100.0" y="160.0" width="320.0" height="40" fill="#0F4C81" stroke="#0F4C81" stroke-width="0" rx="10"/>
<rect x="100.0" y="190.0" width="320.0" height="10" fill="#0F4C81"/>
<text x="116.0" y="186.0" font-size="18" fill="#FFFFFF" text-anchor="start" font-weight="600" font-family='system-ui, -apple-system, "PingFang SC", "Microsoft YaHei", sans-serif'>角色</text>
<text x="116.0" y="220.0" font-size="14" fill="#2D2D2D" text-anchor="start" font-family='system-ui, -apple-system, "PingFang SC", "Microsoft YaHei", sans-serif'>• 你是 10 年经验的部门负责人</text>
<rect x="440.0" y="160.0" width="320.0" height="275.0" fill="#FFFFFF" stroke="#0F4C81" stroke-width="1.5" rx="10"/>
<rect x="440.0" y="160.0" width="320.0" height="40" fill="#0F4C81" stroke="#0F4C81" stroke-width="0" rx="10"/>
<rect x="440.0" y="190.0" width="320.0" height="10" fill="#0F4C81"/>
<text x="456.0" y="186.0" font-size="18" fill="#FFFFFF" text-anchor="start" font-weight="600" font-family='system-ui, -apple-system, "PingFang SC", "Microsoft YaHei", sans-serif'>任务</text>
<text x="456.0" y="220.0" font-size="14" fill="#2D2D2D" text-anchor="start" font-family='system-ui, -apple-system, "PingFang SC", "Microsoft YaHei", sans-serif'>• 基于本周文件生成周报</text>
<rect x="780.0" y="160.0" width="320.0" height="275.0" fill="#FFFFFF" stroke="#0F4C81" stroke-width="1.5" rx="10"/>
<rect x="780.0" y="160.0" width="320.0" height="40" fill="#0F4C81" stroke="#0F4C81" stroke-width="0" rx="10"/>
<rect x="780.0" y="190.0" width="320.0" height="10" fill="#0F4C81"/>
<text x="796.0" y="186.0" font-size="18" fill="#FFFFFF" text-anchor="start" font-weight="600" font-family='system-ui, -apple-system, "PingFang SC", "Microsoft YaHei", sans-serif'>约束</text>
<text x="796.0" y="220.0" font-size="14" fill="#2D2D2D" text-anchor="start" font-family='system-ui, -apple-system, "PingFang SC", "Microsoft YaHei", sans-serif'>• 1200-1500 字 · 三段式</text>
<rect x="100.0" y="455.0" width="320.0" height="275.0" fill="#FFFFFF" stroke="#0F4C81" stroke-width="1.5" rx="10"/>
<rect x="100.0" y="455.0" width="320.0" height="40" fill="#0F4C81" stroke="#0F4C81" stroke-width="0" rx="10"/>
<rect x="100.0" y="485.0" width="320.0" height="10" fill="#0F4C81"/>
<text x="116.0" y="481.0" font-size="18" fill="#FFFFFF" text-anchor="start" font-weight="600" font-family='system-ui, -apple-system, "PingFang SC", "Microsoft YaHei", sans-serif'>素材</text>
<text x="116.0" y="515.0" font-size="14" fill="#2D2D2D" text-anchor="start" font-family='system-ui, -apple-system, "PingFang SC", "Microsoft YaHei", sans-serif'>• ~/Documents/工作周报/W37/</text>
<rect x="440.0" y="455.0" width="320.0" height="275.0" fill="#FFFFFF" stroke="#0F4C81" stroke-width="1.5" rx="10"/>
<rect x="440.0" y="455.0" width="320.0" height="40" fill="#0F4C81" stroke="#0F4C81" stroke-width="0" rx="10"/>
<rect x="440.0" y="485.0" width="320.0" height="10" fill="#0F4C81"/>
<text x="456.0" y="481.0" font-size="18" fill="#FFFFFF" text-anchor="start" font-weight="600" font-family='system-ui, -apple-system, "PingFang SC", "Microsoft YaHei", sans-serif'>输出</text>
<text x="456.0" y="515.0" font-size="14" fill="#2D2D2D" text-anchor="start" font-family='system-ui, -apple-system, "PingFang SC", "Microsoft YaHei", sans-serif'>• 完成项 + 进度项 + 下周计划</text>
<line x1="80" y1="730" x2="1120" y2="730" stroke="#D8D2C5" stroke-width="1"/>
<text x="1120" y="755" font-size="12" fill="#8B8680" text-anchor="end" font-family='system-ui, -apple-system, "PingFang SC", "Microsoft YaHei", sans-serif'>施可 · 三本书</text>
</svg>
