<svg xmlns="http://www.w3.org/2000/svg" viewBox="0 0 1200 800" width="1200" height="800" font-family='system-ui, -apple-system, "PingFang SC", "Microsoft YaHei", sans-serif'>
<rect width="1200" height="800" fill="#FAF7F0"/>
<text x="80" y="70" font-size="32" fill="#0F4C81" text-anchor="start" font-weight="600" font-family='system-ui, -apple-system, "PingFang SC", "Microsoft YaHei", sans-serif'>会议纪要 6 段式模板</text>
<line x1="80" y1="130" x2="1120" y2="130" stroke="#D8D2C5" stroke-width="1"/>
<rect x="100.0" y="160.0" width="320.0" height="275.0" fill="#FFFFFF" stroke="#0F4C81" stroke-width="1.5" rx="10"/>
<rect x="100.0" y="160.0" width="320.0" height="40" fill="#0F4C81" stroke="#0F4C81" stroke-width="0" rx="10"/>
<rect x="100.0" y="190.0" width="320.0" height="10" fill="#0F4C81"/>
<text x="116.0" y="186.0" font-size="18" fill="#FFFFFF" text-anchor="start" font-weight="600" font-family='system-ui, -apple-system, "PingFang SC", "Microsoft YaHei", sans-serif'>基本信息</text>
<text x="116.0" y="220.0" font-size="14" fill="#2D2D2D" text-anchor="start" font-family='system-ui, -apple-system, "PingFang SC", "Microsoft YaHei", sans-serif'>• 时间 · 参会人</text>
<rect x="440.0" y="160.0" width="320.0" height="275.0" fill="#FFFFFF" stroke="#0F4C81" stroke-width="1.5" rx="10"/>
<rect x="440.0" y="160.0" width="320.0" height="40" fill="#0F4C81" stroke="#0F4C81" stroke-width="0" rx="10"/>
<rect x="440.0" y="190.0" width="320.0" height="10" fill="#0F4C81"/>
<text x="456.0" y="186.0" font-size="18" fill="#FFFFFF" text-anchor="start" font-weight="600" font-family='system-ui, -apple-system, "PingFang SC", "Microsoft YaHei", sans-serif'>讨论要点</text>
<text x="456.0" y="220.0" font-size="14" fill="#2D2D2D" text-anchor="start" font-family='system-ui, -apple-system, "PingFang SC", "Microsoft YaHei", sans-serif'>• 议题 + 各方观点</text>
<rect x="780.0" y="160.0" width="320.0" height="275.0" fill="#FFFFFF" stroke="#0F4C81" stroke-width="1.5" rx="10"/>
<rect x="780.0" y="160.0" width="320.0" height="40" fill="#0F4C81" stroke="#0F4C81" stroke-width="0" rx="10"/>
<rect x="780.0" y="190.0" width="320.0" height="10" fill="#0F4C81"/>
<text x="796.0" y="186.0" font-size="18" fill="#FFFFFF" text-anchor="start" font-weight="600" font-family='system-ui, -apple-system, "PingFang SC", "Microsoft YaHei", sans-serif'>决策项</text>
<text x="796.0" y="220.0" font-size="14" fill="#2D2D2D" text-anchor="start" font-family='system-ui, -apple-system, "PingFang SC", "Microsoft YaHei", sans-serif'>• 拍板的结论</text>
<rect x="100.0" y="455.0" width="320.0" height="275.0" fill="#FFFFFF" stroke="#0F4C81" stroke-width="1.5" rx="10"/>
<rect x="100.0" y="455.0" width="320.0" height="40" fill="#0F4C81" stroke="#0F4C81" stroke-width="0" rx="10"/>
<rect x="100.0" y="485.0" width="320.0" height="10" fill="#0F4C81"/>
<text x="116.0" y="481.0" font-size="18" fill="#FFFFFF" text-anchor="start" font-weight="600" font-family='system-ui, -apple-system, "PingFang SC", "Microsoft YaHei", sans-serif'>行动项</text>
<text x="116.0" y="515.0" font-size="14" fill="#2D2D2D" text-anchor="start" font-family='system-ui, -apple-system, "PingFang SC", "Microsoft YaHei", sans-serif'>• 谁 · 做什么 · 截止</text>
<rect x="440.0" y="455.0" width="320.0" height="275.0" fill="#FFFFFF" stroke="#0F4C81" stroke-width="1.5" rx="10"/>
<rect x="440.0" y="455.0" width="320.0" height="40" fill="#0F4C81" stroke="#0F4C81" stroke-width="0" rx="10"/>
<rect x="440.0" y="485.0" width="320.0" height="10" fill="#0F4C81"/>
<text x="456.0" y="481.0" font-size="18" fill="#FFFFFF" text-anchor="start" font-weight="600" font-family='system-ui, -apple-system, "PingFang SC", "Microsoft YaHei", sans-serif'>下次议题</text>
<text x="456.0" y="515.0" font-size="14" fill="#2D2D2D" text-anchor="start" font-family='system-ui, -apple-system, "PingFang SC", "Microsoft YaHei", sans-serif'>• 后续跟进</text>
<rect x="780.0" y="455.0" width="320.0" height="275.0" fill="#FFFFFF" stroke="#0F4C81" stroke-width="1.5" rx="10"/>
<rect x="780.0" y="455.0" width="320.0" height="40" fill="#0F4C81" stroke="#0F4C81" stroke-width="0" rx="10"/>
<rect x="780.0" y="485.0" width="320.0" height="10" fill="#0F4C81"/>
<text x="796.0" y="481.0" font-size="18" fill="#FFFFFF" text-anchor="start" font-weight="600" font-family='system-ui, -apple-system, "PingFang SC", "Microsoft YaHei", sans-serif'>风险点</text>
<text x="796.0" y="515.0" font-size="14" fill="#2D2D2D" text-anchor="start" font-family='system-ui, -apple-system, "PingFang SC", "Microsoft YaHei", sans-serif'>• 未解决的问题</text>
<line x1="80" y1="730" x2="1120" y2="730" stroke="#D8D2C5" stroke-width="1"/>
<text x="1120" y="755" font-size="12" fill="#8B8680" text-anchor="end" font-family='system-ui, -apple-system, "PingFang SC", "Microsoft YaHei", sans-serif'>施可 · 三本书</text>
</svg>
